<?xml version="1.0" encoding="UTF-8" standalone="no"?>
<svg
   xmlns:dc="http://purl.org/dc/elements/1.1/"
   xmlns:cc="http://creativecommons.org/ns#"
   xmlns:rdf="http://www.w3.org/1999/02/22-rdf-syntax-ns#"
   xmlns:svg="http://www.w3.org/2000/svg"
   xmlns="http://www.w3.org/2000/svg"
   xmlns:sodipodi="http://sodipodi.sourceforge.net/DTD/sodipodi-0.dtd"
   xmlns:inkscape="http://www.inkscape.org/namespaces/inkscape"
   version="1.1"
   width="16"
   height="16"
   id="RSSicon"
   viewBox="0 0 32 32"
   inkscape:version="0.48.4 r9939"
   sodipodi:docname="s_menu_unpublished_light.svg"
   inkscape:export-filename="C:\Users\fox\workspace\org.fox.ttrss\res\drawable-hdpi\ic_menu_unpublished_light.png"
   inkscape:export-xdpi="270"
   inkscape:export-ydpi="270">
  <metadata
     id="metadata34">
    <rdf:RDF>
      <cc:Work
         rdf:about="">
        <dc:format>image/svg+xml</dc:format>
        <dc:type
           rdf:resource="http://purl.org/dc/dcmitype/StillImage" />
        <dc:title></dc:title>
      </cc:Work>
    </rdf:RDF>
  </metadata>
  <sodipodi:namedview
     pagecolor="#171717"
     bordercolor="#666666"
     borderopacity="1"
     objecttolerance="10"
     gridtolerance="10"
     guidetolerance="10"
     inkscape:pageopacity="0"
     inkscape:pageshadow="2"
     inkscape:window-width="1600"
     inkscape:window-height="1137"
     id="namedview32"
     showgrid="false"
     inkscape:zoom="23.953242"
     inkscape:cx="6.9218983"
     inkscape:cy="7.6051808"
     inkscape:window-x="-8"
     inkscape:window-y="-8"
     inkscape:window-maximized="1"
     inkscape:current-layer="RSSicon" />
  <defs
     id="defs3">
    <linearGradient
       x1="30.059999"
       y1="30.059999"
       x2="225.94"
       y2="225.94"
       id="RSSg"
       gradientUnits="userSpaceOnUse"
       gradientTransform="translate(0,-224)">
      <stop
         offset="0.0"
         stop-color="#E3702D"
         id="stop6" />
      <stop
         offset="0.1071"
         stop-color="#EA7D31"
         id="stop8" />
      <stop
         offset="0.3503"
         stop-color="#F69537"
         id="stop10" />
      <stop
         offset="0.5"
         stop-color="#FB9E3A"
         id="stop12" />
      <stop
         offset="0.7016"
         stop-color="#EA7C31"
         id="stop14" />
      <stop
         offset="0.8866"
         stop-color="#DE642B"
         id="stop16" />
      <stop
         offset="1.0"
         stop-color="#D95B29"
         id="stop18" />
    </linearGradient>
    <filter
       id="filter3031"
       inkscape:label="Desaturate"
       x="0"
       y="0"
       width="1"
       height="1"
       inkscape:menu="Color"
       inkscape:menu-tooltip="Render in shades of gray by reducing saturation to zero"
       color-interpolation-filters="sRGB">
      <feColorMatrix
         id="feColorMatrix3033"
         type="saturate"
         values="0" />
    </filter>
  </defs>
  <path
     style="opacity:0.8;fill:#ffffff;fill-opacity:1;filter:url(#filter3031)"
     d="m 4.09375,1.15625 c -1.6297285,0 -2.9375,1.3077715 -2.9375,2.9375 l 0,7.8125 c 0,1.629728 1.3077715,2.9375 2.9375,2.9375 l 7.8125,0 c 1.629728,0 2.9375,-1.307772 2.9375,-2.9375 l 0,-7.8125 c 0,-1.6297285 -1.307772,-2.9375 -2.9375,-2.9375 l -7.8125,0 z M 3.5,3.1875 a 9.3601078,9.3601078 0 0 1 9.375,9.34375 l -1.875,0 A 7.4880862,7.4880862 0 0 0 3.5,5.0625 l 0,-1.875 z m 0,3.15625 a 6.2044143,6.2044143 0 0 1 6.21875,6.1875 l -1.8125,0 A 4.3858791,4.3858791 0 0 0 3.5,8.15625 l 0,-1.8125 z m 1.28125,3.625 c 0.7089524,0 1.28125,0.572298 1.28125,1.28125 0,0.708952 -0.5722976,1.28125 -1.28125,1.28125 C 4.0722976,12.53125 3.5,11.958952 3.5,11.25 3.5,10.541048 4.0722976,9.96875 4.78125,9.96875 z"
     transform="matrix(1.7681938,0,0,1.7681938,1.8544501,1.8544501)"
     id="rect20"
     inkscape:connector-curvature="0" />
</svg>
